<svg width="960" height="540" viewBox="0 0 960 540" fill="none" xmlns="http://www.w3.org/2000/svg">
  <rect width="960" height="540" fill="#111827"/>
  <rect width="960" height="540" fill="url(#courtGlow)"/>
  <path d="M0 390H960V540H0V390Z" fill="#C66A2B"/>
  <path d="M0 390H960" stroke="#FCE7D0" stroke-width="8"/>
  <path d="M480 390V540" stroke="#FCE7D0" stroke-width="5"/>
  <circle cx="480" cy="540" r="118" stroke="#FCE7D0" stroke-width="5"/>
  <path d="M760 108H866V136H760V108Z" fill="#F8FAFC"/>
  <path d="M802 136H824V222H802V136Z" fill="#94A3B8"/>
  <path d="M754 198C770 242 854 242 870 198" stroke="#F97316" stroke-width="11" stroke-linecap="round"/>
  <path d="M770 203C784 234 840 234 854 203" stroke="#FED7AA" stroke-width="3" stroke-linecap="round"/>
  <circle cx="244" cy="302" r="70" fill="#EA580C"/>
  <path d="M174 302H314M244 232V372" stroke="#431407" stroke-width="7"/>
  <path d="M201 246C231 286 231 318 201 358M287 246C257 286 257 318 287 358" stroke="#431407" stroke-width="7"/>
  <path d="M555 330C618 260 698 241 786 274" stroke="#FDBA74" stroke-width="6" stroke-linecap="round" stroke-dasharray="18 18"/>
  <path d="M84 74H428" stroke="#F8FAFC" stroke-opacity=".18" stroke-width="34" stroke-linecap="round"/>
  <path d="M84 126H342" stroke="#F8FAFC" stroke-opacity=".12" stroke-width="18" stroke-linecap="round"/>
  <defs>
    <radialGradient id="courtGlow" cx="0" cy="0" r="1" gradientUnits="userSpaceOnUse" gradientTransform="translate(712 110) rotate(136) scale(680 590)">
      <stop stop-color="#F97316" stop-opacity=".42"/>
      <stop offset=".48" stop-color="#B34039" stop-opacity=".26"/>
      <stop offset="1" stop-color="#111827" stop-opacity="0"/>
    </radialGradient>
  </defs>
</svg>
