<svg width="960" height="540" viewBox="0 0 960 540" fill="none" xmlns="http://www.w3.org/2000/svg">
  <rect width="960" height="540" fill="#111827"/>
  <rect width="960" height="540" fill="url(#settingsGlow)"/>
  <rect x="226" y="128" width="508" height="284" rx="28" fill="#F8FAFC" fill-opacity=".1" stroke="#CBD5E1" stroke-opacity=".46" stroke-width="4"/>
  <rect x="262" y="168" width="228" height="34" rx="17" fill="#F8FAFC" fill-opacity=".22"/>
  <rect x="262" y="228" width="436" height="28" rx="14" fill="#F8FAFC" fill-opacity=".14"/>
  <rect x="262" y="278" width="436" height="28" rx="14" fill="#F8FAFC" fill-opacity=".14"/>
  <rect x="262" y="328" width="310" height="28" rx="14" fill="#F8FAFC" fill-opacity=".14"/>
  <circle cx="646" cy="184" r="42" fill="#245581"/>
  <path d="M646 154V214M616 184H676" stroke="#F8FAFC" stroke-width="8" stroke-linecap="round"/>
  <circle cx="626" cy="344" r="74" fill="#94A3B8" fill-opacity=".24"/>
  <path d="M626 296V318M626 370V392M578 344H600M652 344H674M592 310L608 326M644 362L660 378M660 310L644 326M608 362L592 378" stroke="#F8FAFC" stroke-width="9" stroke-linecap="round"/>
  <circle cx="626" cy="344" r="22" fill="#F8FAFC"/>
  <path d="M88 76H430" stroke="#F8FAFC" stroke-opacity=".18" stroke-width="34" stroke-linecap="round"/>
  <path d="M88 128H342" stroke="#F8FAFC" stroke-opacity=".12" stroke-width="18" stroke-linecap="round"/>
  <defs>
    <radialGradient id="settingsGlow" cx="0" cy="0" r="1" gradientUnits="userSpaceOnUse" gradientTransform="translate(718 114) rotate(140) scale(682 606)">
      <stop stop-color="#64748B" stop-opacity=".5"/>
      <stop offset=".48" stop-color="#245581" stop-opacity=".24"/>
      <stop offset="1" stop-color="#111827" stop-opacity="0"/>
    </radialGradient>
  </defs>
</svg>
