<svg width="960" height="540" viewBox="0 0 960 540" fill="none" xmlns="http://www.w3.org/2000/svg">
  <rect width="960" height="540" fill="#0F172A"/>
  <rect width="960" height="540" fill="url(#volleyGlow)"/>
  <path d="M0 378H960V540H0V378Z" fill="#0F766E" fill-opacity=".64"/>
  <path d="M112 384H848L768 520H190L112 384Z" fill="#14B8A6" fill-opacity=".36"/>
  <path d="M112 384H848M190 520H768M480 384V520M216 384L190 520M744 384L768 520" stroke="#CCFBF1" stroke-opacity=".9" stroke-width="6"/>
  <path d="M476 154V522M484 154V522" stroke="#F8FAFC" stroke-width="5"/>
  <path d="M270 158H690" stroke="#F8FAFC" stroke-width="7" stroke-linecap="round"/>
  <path d="M270 188H690M270 218H690M270 248H690M270 278H690M270 308H690" stroke="#F8FAFC" stroke-opacity=".62" stroke-width="3"/>
  <path d="M306 154V320M354 154V320M402 154V320M450 154V320M510 154V320M558 154V320M606 154V320M654 154V320" stroke="#F8FAFC" stroke-opacity=".46" stroke-width="3"/>
  <circle cx="700" cy="164" r="58" fill="#F8FAFC"/>
  <path d="M650 147C680 158 710 157 748 130M654 190C684 174 713 173 754 202M699 107C689 140 690 176 710 218" stroke="#245581" stroke-width="7" stroke-linecap="round"/>
  <path d="M86 74H430" stroke="#F8FAFC" stroke-opacity=".18" stroke-width="34" stroke-linecap="round"/>
  <path d="M86 126H342" stroke="#F8FAFC" stroke-opacity=".12" stroke-width="18" stroke-linecap="round"/>
  <defs>
    <radialGradient id="volleyGlow" cx="0" cy="0" r="1" gradientUnits="userSpaceOnUse" gradientTransform="translate(725 110) rotate(139) scale(684 612)">
      <stop stop-color="#2DD4BF" stop-opacity=".4"/>
      <stop offset=".5" stop-color="#22C55E" stop-opacity=".18"/>
      <stop offset="1" stop-color="#0F172A" stop-opacity="0"/>
    </radialGradient>
  </defs>
</svg>
